<?xml version="1.0" encoding="UTF-8"?>
<svg id="Layer_2" data-name="Layer 2" xmlns="http://www.w3.org/2000/svg" viewBox="0 0 159.8 121.3">
  <defs>
    <style>
      .cls-1 {
        fill: #0535a0;
      }

      .cls-1, .cls-2, .cls-3 {
        stroke-width: 0px;
      }

      .cls-2 {
        fill: #9ea6b7;
      }

      .cls-3 {
        fill: #8eadf4;
      }
    </style>
  </defs>
  <g id="Layer_1-2" data-name="Layer 1">
    <g>
      <g>
        <circle class="cls-3" cx="85.33" cy="61.93" r="48.69"/>
        <ellipse class="cls-3" cx="109.17" cy="60.86" rx="50.63" ry="31.55"/>
        <path class="cls-3" d="M52.07,106.46c-28.36,0-51.35-14.3-51.35-31.94,0-17.64,22.99-31.94,51.35-31.94s51.35,14.3,51.35,31.94-22.99,31.94-51.35,31.94Z"/>
      </g>
      <g>
        <circle class="cls-1" cx="85.33" cy="48.7" r="48.69"/>
        <ellipse class="cls-1" cx="109.17" cy="47.63" rx="50.63" ry="31.55"/>
        <path class="cls-1" d="M52.07,93.24C23.71,93.24.71,78.94.71,61.29c0-17.64,22.99-31.94,51.35-31.94,28.36,0,51.35,14.3,51.35,31.94s-22.99,31.94-51.35,31.94Z"/>
      </g>
      <g>
        <path class="cls-2" d="M66.69,51.5l-21.83,17.29c-4.82,3.82-7.51,10.41-6.7,17.08.45,3.72,1.96,7.27,5.64,9.08,5.52,2.72,10.74-.17,14.25-3.21,2.75-2.39,4.56-5.94,5.03-9.86l3.61-30.37Z"/>
        <path class="cls-2" d="M115.77,27.74l-21.83,17.29c-4.82,3.82-7.51,10.41-6.7,17.08.45,3.72,1.96,7.27,5.64,9.08,5.52,2.72,10.74-.17,14.25-3.21,2.75-2.39,4.56-5.94,5.03-9.86l3.61-30.37Z"/>
        <path class="cls-2" d="M87.95,76.77l-21.83,17.29c-4.82,3.82-7.51,10.41-6.7,17.08.45,3.72,1.96,7.27,5.64,9.08,5.52,2.72,10.74-.17,14.25-3.21,2.75-2.39,4.56-5.94,5.03-9.86l3.61-30.37Z"/>
        <path class="cls-2" d="M126.71,73.77l-21.83,17.29c-4.82,3.82-7.51,10.41-6.7,17.08.45,3.72,1.96,7.27,5.64,9.08,5.52,2.72,10.74-.17,14.25-3.21,2.75-2.39,4.56-5.94,5.03-9.86l3.61-30.37Z"/>
        <path class="cls-2" d="M28.67,60.15l-21.83,17.29c-4.82,3.82-7.51,10.41-6.7,17.08.45,3.72,1.96,7.27,5.64,9.08,5.52,2.72,10.74-.17,14.25-3.21,2.75-2.39,4.56-5.94,5.03-9.86l3.61-30.37Z"/>
      </g>
    </g>
  </g>
</svg>