<?xml version="1.0" encoding="UTF-8"?>
<svg id="Layer_2" data-name="Layer 2" xmlns="http://www.w3.org/2000/svg" viewBox="0 0 228.57 140.73">
  <defs>
    <style>
      .cls-1 {
        fill: #9ea6b7;
      }

      .cls-1, .cls-2 {
        stroke-width: 0px;
      }

      .cls-2 {
        fill: #0847f9;
      }
    </style>
  </defs>
  <g id="Layer_1-2" data-name="Layer 1">
    <g>
      <g>
        <ellipse class="cls-2" cx="103.9" cy="37.66" rx="74.03" ry="37.66"/>
        <ellipse class="cls-2" cx="154.55" cy="61.61" rx="74.03" ry="37.66"/>
        <ellipse class="cls-2" cx="74.03" cy="75.32" rx="74.03" ry="37.66"/>
        <ellipse class="cls-2" cx="117.44" cy="82.39" rx="74.03" ry="37.66"/>
      </g>
      <path class="cls-1" d="M84.44,64.56l-31.24,21.54c-6.9,4.76-10.74,12.98-9.59,21.28.65,4.64,2.81,9.06,8.07,11.31,7.89,3.38,15.37-.21,20.39-4,3.94-2.97,6.53-7.4,7.2-12.29l5.16-37.85Z"/>
      <path class="cls-1" d="M144.92,36.82l-31.24,21.54c-6.9,4.76-10.74,12.98-9.59,21.28.65,4.64,2.81,9.06,8.07,11.31,7.89,3.38,15.37-.21,20.39-4,3.94-2.97,6.53-7.4,7.2-12.29l5.16-37.85Z"/>
      <path class="cls-1" d="M175.06,85.24l-31.24,21.54c-6.9,4.76-10.74,12.98-9.59,21.28.65,4.64,2.81,9.06,8.07,11.31,7.89,3.38,15.37-.21,20.39-4,3.94-2.97,6.53-7.4,7.2-12.29l5.16-37.85Z"/>
    </g>
  </g>
</svg>